<svg width="20" height="20" viewBox="0 0 20 20" fill="none" xmlns="http://www.w3.org/2000/svg">
<path d="M17.9688 16.25C17.9688 16.3743 17.9194 16.4935 17.8315 16.5815C17.7435 16.6694 17.6243 16.7188 17.5 16.7188H2.5C2.37568 16.7188 2.25645 16.6694 2.16854 16.5815C2.08064 16.4935 2.03125 16.3743 2.03125 16.25V3.75C2.03125 3.62568 2.08064 3.50645 2.16854 3.41854C2.25645 3.33064 2.37568 3.28125 2.5 3.28125C2.62432 3.28125 2.74355 3.33064 2.83146 3.41854C2.91936 3.50645 2.96875 3.62568 2.96875 3.75V11.4672L7.19141 7.77188C7.27232 7.70118 7.37507 7.66042 7.48245 7.65644C7.58983 7.65246 7.69532 7.68549 7.78125 7.75L12.4773 11.2719L17.1914 7.14688C17.2858 7.07418 17.4043 7.04015 17.5229 7.05169C17.6414 7.06323 17.7511 7.11947 17.8297 7.209C17.9083 7.29853 17.9499 7.41462 17.9459 7.53368C17.942 7.65274 17.8929 7.76584 17.8086 7.85L12.8086 12.225C12.7277 12.2957 12.6249 12.3365 12.5175 12.3404C12.4102 12.3444 12.3047 12.3114 12.2188 12.2469L7.52266 8.72813L2.96875 12.7125V15.7812H17.5C17.6243 15.7812 17.7435 15.8306 17.8315 15.9185C17.9194 16.0065 17.9688 16.1257 17.9688 16.25Z" fill="white"/>
</svg>
