<svg width="20" height="20" viewBox="0 0 20 20" fill="none" xmlns="http://www.w3.org/2000/svg">
<path d="M18.125 12.3438C18.2493 12.3438 18.3685 12.2944 18.4565 12.2065C18.5444 12.1186 18.5938 11.9993 18.5938 11.875C18.5938 11.7507 18.5444 11.6315 18.4565 11.5435C18.3685 11.4556 18.2493 11.4063 18.125 11.4063C16.3759 11.405 14.6359 11.6589 12.9602 12.1602C12.3775 11.7838 11.7759 11.4375 11.1578 11.1227C13.382 10.2723 15.7438 9.83873 18.125 9.84375C18.2493 9.84375 18.3685 9.79437 18.4565 9.70646C18.5444 9.61855 18.5938 9.49932 18.5938 9.375C18.5938 9.25068 18.5444 9.13145 18.4565 9.04355C18.3685 8.95564 18.2493 8.90625 18.125 8.90625C17.6562 8.90625 17.1875 8.92344 16.7188 8.95469V6.25C16.7188 6.17723 16.7018 6.10546 16.6693 6.04037C16.6367 5.97528 16.5895 5.91866 16.5312 5.875L11.5312 2.125C11.4501 2.06415 11.3514 2.03125 11.25 2.03125C11.1486 2.03125 11.0499 2.06415 10.9688 2.125L5.96875 5.875C5.91053 5.91866 5.86328 5.97528 5.83074 6.04037C5.79819 6.10546 5.78125 6.17723 5.78125 6.25V9.27891C4.49395 9.03094 3.18596 8.90616 1.875 8.90625C1.75068 8.90625 1.63145 8.95564 1.54354 9.04355C1.45564 9.13145 1.40625 9.25068 1.40625 9.375C1.40625 9.49932 1.45564 9.61855 1.54354 9.70646C1.63145 9.79437 1.75068 9.84375 1.875 9.84375C4.80396 9.83794 7.69642 10.4936 10.3366 11.7618C12.9768 13.03 15.2965 14.878 17.1227 17.168C17.1666 17.2229 17.2224 17.2672 17.2858 17.2976C17.3492 17.3281 17.4187 17.3438 17.4891 17.3438C17.5773 17.3436 17.6637 17.3185 17.7383 17.2714C17.8128 17.2243 17.8726 17.1571 17.9107 17.0775C17.9489 16.9979 17.9637 16.9092 17.9537 16.8216C17.9436 16.7339 17.909 16.6509 17.8539 16.582C17.3964 16.0113 16.909 15.4652 16.3937 14.9461C16.9684 14.8784 17.5464 14.8442 18.125 14.8438C18.2493 14.8438 18.3685 14.7944 18.4565 14.7065C18.5444 14.6186 18.5938 14.4993 18.5938 14.375C18.5938 14.2507 18.5444 14.1315 18.4565 14.0435C18.3685 13.9556 18.2493 13.9063 18.125 13.9063C17.2556 13.9063 16.3877 13.9792 15.5305 14.1242C15.0289 13.6737 14.5081 13.2505 13.968 12.8547C15.3275 12.5146 16.7236 12.343 18.125 12.3438ZM9.84375 10.5125V7.96875H12.6562V9.64531C11.752 9.896 10.8663 10.2093 10.0055 10.5828L9.84375 10.5125ZM6.71875 6.48438L11.25 3.08594L15.7812 6.48438V9.03984C15.0459 9.12316 14.3157 9.24652 13.5938 9.40938V7.5C13.5938 7.37568 13.5444 7.25645 13.4565 7.16854C13.3685 7.08064 13.2493 7.03125 13.125 7.03125H9.375C9.25068 7.03125 9.13145 7.08064 9.04354 7.16854C8.95564 7.25645 8.90625 7.37568 8.90625 7.5V10.1445C8.19012 9.88317 7.45979 9.6625 6.71875 9.48359V6.48438ZM10.5602 17.1344C10.5261 17.1857 10.4823 17.2298 10.4312 17.2642C10.3801 17.2985 10.3227 17.3225 10.2624 17.3347C10.202 17.3469 10.1398 17.347 10.0794 17.3352C10.019 17.3233 9.96145 17.2997 9.91016 17.2656C7.52997 15.682 4.73387 14.8392 1.875 14.8438C1.75068 14.8438 1.63145 14.7944 1.54354 14.7065C1.45564 14.6186 1.40625 14.4993 1.40625 14.375C1.40625 14.2507 1.45564 14.1315 1.54354 14.0435C1.63145 13.9556 1.75068 13.9063 1.875 13.9063C4.91843 13.9014 7.89503 14.7986 10.4289 16.4844C10.4802 16.5184 10.5243 16.5623 10.5587 16.6133C10.5931 16.6644 10.617 16.7218 10.6292 16.7822C10.6414 16.8425 10.6416 16.9047 10.6297 16.9652C10.6179 17.0256 10.5942 17.0831 10.5602 17.1344ZM14.4508 16.5398C14.4947 16.5829 14.5298 16.6343 14.5539 16.6909C14.578 16.7475 14.5908 16.8084 14.5914 16.8699C14.592 16.9315 14.5805 16.9925 14.5575 17.0497C14.5345 17.1068 14.5005 17.1588 14.4574 17.2027C14.4143 17.2467 14.363 17.2817 14.3064 17.3059C14.2497 17.33 14.1889 17.3427 14.1274 17.3433C14.0658 17.344 14.0047 17.3324 13.9476 17.3095C13.8905 17.2865 13.8385 17.2525 13.7945 17.2094C10.6167 14.0818 6.33375 12.3334 1.875 12.3438C1.75068 12.3438 1.63145 12.2944 1.54354 12.2065C1.45564 12.1186 1.40625 11.9993 1.40625 11.875C1.40625 11.7507 1.45564 11.6315 1.54354 11.5435C1.63145 11.4556 1.75068 11.4063 1.875 11.4063C6.58003 11.3949 11.0997 13.2395 14.4531 16.5398H14.4508Z" fill="white"/>
</svg>
