<svg width="24" height="24" viewBox="0 0 24 24" fill="none" xmlns="http://www.w3.org/2000/svg">
<path d="M20.1703 3.82945C19.0018 2.66001 17.4716 1.92102 15.8291 1.733C14.1867 1.54499 12.529 1.91905 11.1265 2.79418C9.72397 3.66931 8.65936 4.99385 8.10632 6.55176C7.55327 8.10966 7.54444 9.809 8.08125 11.3726L2.82188 16.6319C2.69975 16.7536 2.60292 16.8983 2.53695 17.0576C2.47098 17.2169 2.43718 17.3877 2.4375 17.5601V20.2498C2.4375 20.5979 2.57578 20.9317 2.82192 21.1778C3.06807 21.424 3.40191 21.5623 3.75 21.5623H6.75C6.89919 21.5623 7.04226 21.503 7.14775 21.3975C7.25324 21.292 7.3125 21.1489 7.3125 20.9998V19.3123H9C9.14919 19.3123 9.29226 19.253 9.39775 19.1475C9.50324 19.042 9.5625 18.8989 9.5625 18.7498V17.0623H11.25C11.3991 17.0621 11.5421 17.0028 11.6475 16.8973L12.6272 15.9185C13.3908 16.1805 14.1927 16.3136 15 16.3123H15.0094C16.4547 16.3102 17.8671 15.88 19.068 15.0757C20.269 14.2715 21.2047 13.1294 21.7569 11.7937C22.3091 10.458 22.4532 8.98859 22.1708 7.57109C21.8884 6.15358 21.1923 4.85155 20.1703 3.82945ZM21.1875 9.20226C21.0825 12.4985 18.3122 15.1835 15.0113 15.1873C14.2244 15.1889 13.4445 15.0403 12.7134 14.7494C12.6098 14.7043 12.495 14.6915 12.384 14.7125C12.2729 14.7336 12.1708 14.7876 12.0909 14.8676L11.0166 15.9373H9C8.85082 15.9373 8.70774 15.9965 8.60226 16.102C8.49677 16.2075 8.4375 16.3506 8.4375 16.4998V18.1873H6.75C6.60082 18.1873 6.45774 18.2465 6.35226 18.352C6.24677 18.4575 6.1875 18.6006 6.1875 18.7498V20.4373H3.75C3.70027 20.4373 3.65258 20.4175 3.61742 20.3823C3.58226 20.3472 3.5625 20.2995 3.5625 20.2498V17.5601C3.56246 17.5106 3.58201 17.463 3.61688 17.4279L9.13219 11.9126C9.21214 11.8327 9.26617 11.7306 9.28724 11.6195C9.30831 11.5085 9.29544 11.3937 9.25032 11.2901C8.95874 10.5592 8.81012 9.77915 8.8125 8.99226C8.8125 5.69132 11.5013 2.92101 14.7966 2.81226C15.6434 2.78393 16.487 2.92983 17.2752 3.24092C18.0633 3.55201 18.7792 4.02166 19.3783 4.62076C19.9775 5.21985 20.4473 5.93563 20.7585 6.72372C21.0697 7.51181 21.2157 8.35542 21.1875 9.20226ZM17.8125 7.12476C17.8125 7.31018 17.7575 7.49144 17.6545 7.64561C17.5515 7.79978 17.4051 7.91994 17.2338 7.9909C17.0625 8.06185 16.874 8.08042 16.6921 8.04425C16.5103 8.00807 16.3432 7.91878 16.2121 7.78767C16.081 7.65656 15.9917 7.48951 15.9555 7.30766C15.9193 7.1258 15.9379 6.9373 16.0089 6.76599C16.0798 6.59469 16.2 6.44827 16.3542 6.34526C16.5083 6.24224 16.6896 6.18726 16.875 6.18726C17.1236 6.18726 17.3621 6.28603 17.5379 6.46185C17.7137 6.63766 17.8125 6.87612 17.8125 7.12476Z" fill="#303030"/>
</svg>
