<svg width="24" height="24" viewBox="0 0 24 24" fill="none" xmlns="http://www.w3.org/2000/svg">
<path d="M21.3975 5.602L18.3975 2.60201C18.292 2.49667 18.1491 2.4375 18 2.4375C17.8509 2.4375 17.708 2.49667 17.6025 2.60201L8.6025 11.602C8.49698 11.7074 8.43763 11.8504 8.4375 11.9995V14.9995C8.4375 15.1487 8.49676 15.2918 8.60225 15.3973C8.70774 15.5027 8.85082 15.562 9 15.562H12C12.1491 15.5619 12.2921 15.5025 12.3975 15.397L21.3975 6.397C21.5028 6.29154 21.562 6.14857 21.562 5.9995C21.562 5.85044 21.5028 5.70747 21.3975 5.602ZM11.7666 14.437H9.5625V12.2329L15.75 6.04544L17.9541 8.2495L11.7666 14.437ZM18.75 7.45357L16.5459 5.2495L18 3.79544L20.2041 5.9995L18.75 7.45357ZM20.8125 11.9995V19.4995C20.8125 19.8476 20.6742 20.1814 20.4281 20.4276C20.1819 20.6737 19.8481 20.812 19.5 20.812H4.5C4.1519 20.812 3.81806 20.6737 3.57192 20.4276C3.32578 20.1814 3.1875 19.8476 3.1875 19.4995V4.4995C3.1875 4.15141 3.32578 3.81757 3.57192 3.57143C3.81806 3.32529 4.1519 3.187 4.5 3.187H12C12.1492 3.187 12.2923 3.24627 12.3977 3.35176C12.5032 3.45725 12.5625 3.60032 12.5625 3.7495C12.5625 3.89869 12.5032 4.04176 12.3977 4.14725C12.2923 4.25274 12.1492 4.312 12 4.312H4.5C4.45027 4.312 4.40258 4.33176 4.36742 4.36692C4.33225 4.40209 4.3125 4.44978 4.3125 4.4995V19.4995C4.3125 19.5492 4.33225 19.5969 4.36742 19.6321C4.40258 19.6672 4.45027 19.687 4.5 19.687H19.5C19.5497 19.687 19.5974 19.6672 19.6326 19.6321C19.6677 19.5969 19.6875 19.5492 19.6875 19.4995V11.9995C19.6875 11.8503 19.7468 11.7072 19.8523 11.6018C19.9577 11.4963 20.1008 11.437 20.25 11.437C20.3992 11.437 20.5423 11.4963 20.6477 11.6018C20.7532 11.7072 20.8125 11.8503 20.8125 11.9995Z" fill="#303030"/>
</svg>
