<svg width="24" height="24" viewBox="0 0 24 24" fill="none" xmlns="http://www.w3.org/2000/svg">
<path d="M21 2.4375C19.05 2.4375 16.8647 3.50719 14.5031 5.61562C12.8081 7.13062 11.3437 8.89687 10.3406 10.2187C9.52363 9.94711 8.65384 9.87334 7.80279 10.0035C6.95175 10.1337 6.14378 10.4641 5.44537 10.9675C4.74697 11.471 4.17809 12.1331 3.78555 12.8993C3.393 13.6656 3.18802 14.5141 3.18747 15.375C3.18747 18.3816 1.27216 19.7241 1.18591 19.7812C1.08498 19.8482 1.00836 19.9459 0.967425 20.0599C0.926495 20.1739 0.923444 20.298 0.958727 20.4139C0.99401 20.5297 1.06574 20.6311 1.16326 20.7029C1.26077 20.7747 1.37886 20.8132 1.49997 20.8125H8.62497C9.48591 20.8119 10.3344 20.607 11.1007 20.2144C11.8669 19.8219 12.529 19.253 13.0324 18.5546C13.5359 17.8562 13.8663 17.0482 13.9964 16.1972C14.1266 15.3461 14.0529 14.4763 13.7812 13.6594C15.1012 12.6591 16.8675 11.1919 18.3825 9.49687C20.4928 7.13531 21.5625 4.95 21.5625 3C21.5625 2.85082 21.5032 2.70774 21.3977 2.60225C21.2922 2.49676 21.1492 2.4375 21 2.4375ZM8.62497 19.6875H2.87341C3.55497 18.8297 4.31247 17.4169 4.31247 15.375C4.31247 14.5221 4.56539 13.6883 5.03926 12.9791C5.51312 12.2699 6.18664 11.7172 6.97465 11.3908C7.76265 11.0644 8.62975 10.979 9.4663 11.1454C10.3028 11.3118 11.0713 11.7225 11.6744 12.3256C12.2775 12.9287 12.6882 13.6971 12.8546 14.5337C13.021 15.3702 12.9356 16.2373 12.6092 17.0253C12.2828 17.8133 11.7301 18.4868 11.0209 18.9607C10.3117 19.4346 9.4779 19.6875 8.62497 19.6875ZM11.3897 10.6959C11.7272 10.2581 12.1284 9.75844 12.5812 9.225C13.4606 9.79131 14.2087 10.5393 14.775 11.4187C14.2434 11.8716 13.7437 12.2728 13.304 12.6103C12.8363 11.8219 12.178 11.1637 11.3897 10.6959ZM15.6272 10.6678C15.0174 9.76186 14.2381 8.98252 13.3322 8.37281C15.2859 6.23062 17.9062 3.9375 20.3962 3.60375C20.0625 6.09375 17.7693 8.71875 15.6272 10.6678Z" fill="#303030"/>
</svg>
