<svg width="24" height="24" viewBox="0 0 24 24" fill="none" xmlns="http://www.w3.org/2000/svg">
<path d="M22.158 5.11965C21.5889 4.50995 20.9006 4.0238 20.1358 3.69141C19.3709 3.35902 18.5458 3.1875 17.7119 3.1875C16.8779 3.1875 16.0528 3.35902 15.288 3.69141C14.5231 4.0238 13.8348 4.50995 13.2658 5.11965C12.735 5.67764 12.3066 6.3247 12.0001 7.03121C11.6935 6.32536 11.2651 5.67895 10.7345 5.12152C10.1655 4.51183 9.47718 4.02568 8.71232 3.69329C7.94745 3.3609 7.12239 3.18937 6.28843 3.18937C5.45446 3.18937 4.6294 3.3609 3.86454 3.69329C3.09967 4.02568 2.41134 4.51183 1.84233 5.12152C1.78004 5.18737 1.73459 5.2673 1.70985 5.3545C1.6851 5.44169 1.68179 5.53358 1.70021 5.62233C1.71862 5.71109 1.75821 5.79407 1.8156 5.86423C1.87299 5.93439 1.94649 5.98964 2.02983 6.02527L7.8264 8.54715C7.65296 8.57902 7.47952 8.61652 7.30702 8.66246C6.47522 8.8803 5.69484 9.26082 5.01096 9.78201C4.32708 10.3032 3.75325 10.9548 3.32265 11.699C2.88915 12.4387 2.60779 13.2575 2.4951 14.1073C2.3824 14.9572 2.44064 15.821 2.6664 16.6481C2.69039 16.7372 2.73596 16.8191 2.79906 16.8864C2.86217 16.9538 2.94089 17.0046 3.02827 17.0343C3.08658 17.054 3.14767 17.0641 3.20921 17.0643C3.33252 17.0643 3.45242 17.0238 3.55046 16.949L11.4376 10.935V21C11.4376 21.1491 11.4969 21.2922 11.6024 21.3977C11.7079 21.5032 11.851 21.5625 12.0001 21.5625C12.1493 21.5625 12.2924 21.5032 12.3979 21.3977C12.5034 21.2922 12.5626 21.1491 12.5626 21V10.935L20.4536 16.9471C20.5516 17.022 20.6715 17.0625 20.7948 17.0625C20.8564 17.0623 20.9175 17.0521 20.9758 17.0325C21.0632 17.0027 21.1419 16.9519 21.205 16.8846C21.2681 16.8172 21.3136 16.7353 21.3376 16.6462C21.5634 15.8192 21.6216 14.9553 21.5089 14.1055C21.3962 13.2556 21.1149 12.4368 20.6814 11.6971C20.2508 10.9529 19.677 10.3013 18.9931 9.78014C18.3092 9.25894 17.5288 8.87843 16.697 8.66058C16.5245 8.61465 16.3511 8.57715 16.1776 8.54527L21.9742 6.0234C22.0576 5.98776 22.131 5.93251 22.1884 5.86236C22.2458 5.7922 22.2854 5.70921 22.3038 5.62046C22.3222 5.53171 22.3189 5.43982 22.2942 5.35262C22.2694 5.26542 22.224 5.1855 22.1617 5.11965H22.158ZM6.2889 4.31246C6.97014 4.31407 7.64382 4.45533 8.26832 4.72751C8.89283 4.9997 9.45491 5.39703 9.91983 5.89496C10.6953 6.71245 11.2015 7.74805 11.3701 8.86215L3.27483 5.34371C4.13773 4.67591 5.19777 4.31322 6.2889 4.31246ZM3.58983 15.4996C3.47331 14.3735 3.71896 13.2395 4.29108 12.2625C4.64864 11.6465 5.12455 11.1074 5.69141 10.6761C6.25826 10.2449 6.90484 9.93016 7.5939 9.74996C8.05625 9.62617 8.53276 9.56314 9.0114 9.56246C9.66573 9.56216 10.3147 9.68064 10.9267 9.91215L3.58983 15.4996ZM19.7092 12.2625C20.2813 13.2395 20.527 14.3735 20.4105 15.4996L13.0755 9.91121C14.2809 9.4578 15.6078 9.44509 16.8217 9.87535C18.0356 10.3056 19.0584 11.1511 19.7092 12.2625ZM12.6301 8.86215C12.7988 7.74805 13.305 6.71245 14.0805 5.89496C14.5454 5.39703 15.1075 4.9997 15.732 4.72751C16.3565 4.45533 17.0302 4.31407 17.7114 4.31246C18.8025 4.31322 19.8626 4.67591 20.7255 5.34371L12.6301 8.86215Z" fill="#303030"/>
</svg>
