<svg width="24" height="24" viewBox="0 0 24 24" fill="none" xmlns="http://www.w3.org/2000/svg">
<path d="M10.5563 14.8555C11.6008 14.2634 12.42 13.3423 12.8861 12.2357C13.3522 11.1292 13.4389 9.89954 13.1328 8.73855C12.8266 7.57756 12.1448 6.55054 11.1937 5.81772C10.2426 5.08491 9.07569 4.6875 7.87501 4.6875C6.67434 4.6875 5.50742 5.08491 4.55631 5.81772C3.6052 6.55054 2.92339 7.57756 2.61724 8.73855C2.31109 9.89954 2.39783 11.1292 2.86391 12.2357C3.32999 13.3423 4.14921 14.2634 5.19376 14.8555C3.2578 15.4727 1.59521 16.741 0.488452 18.4452C0.406898 18.5701 0.378317 18.7223 0.408996 18.8683C0.439676 19.0143 0.527103 19.1422 0.652045 19.2237C0.776987 19.3053 0.929209 19.3339 1.07522 19.3032C1.22124 19.2725 1.34908 19.1851 1.43064 19.0602C2.12871 17.9868 3.0838 17.1049 4.2092 16.4944C5.3346 15.8838 6.59467 15.564 7.87501 15.564C9.15536 15.564 10.4154 15.8838 11.5408 16.4944C12.6662 17.1049 13.6213 17.9868 14.3194 19.0602C14.4063 19.1715 14.5318 19.2461 14.6711 19.2691C14.8104 19.2921 14.9533 19.2619 15.0714 19.1845C15.1895 19.107 15.2741 18.988 15.3085 18.851C15.3428 18.714 15.3244 18.5692 15.2569 18.4452C14.1513 16.7419 12.4905 15.4736 10.5563 14.8555ZM3.56251 10.1277C3.56251 9.27472 3.81544 8.44094 4.2893 7.73176C4.76316 7.02257 5.43668 6.46983 6.22469 6.14342C7.0127 5.81702 7.8798 5.73162 8.71634 5.89802C9.55288 6.06442 10.3213 6.47514 10.9244 7.07825C11.5275 7.68137 11.9382 8.44978 12.1046 9.28633C12.271 10.1229 12.1856 10.99 11.8592 11.778C11.5328 12.566 10.9801 13.2395 10.2709 13.7134C9.56172 14.1872 8.72795 14.4402 7.87501 14.4402C6.73172 14.4387 5.63569 13.9838 4.82726 13.1754C4.01883 12.367 3.564 11.2709 3.56251 10.1277ZM23.3438 19.2214C23.2189 19.3029 23.0668 19.3314 22.9209 19.3009C22.775 19.2703 22.6472 19.183 22.5656 19.0583C21.8688 17.9849 20.9144 17.1029 19.7895 16.4928C18.6645 15.8827 17.4048 15.5638 16.125 15.5652C15.9758 15.5652 15.8328 15.5059 15.7273 15.4004C15.6218 15.2949 15.5625 15.1518 15.5625 15.0027C15.5625 14.8535 15.6218 14.7104 15.7273 14.6049C15.8328 14.4994 15.9758 14.4402 16.125 14.4402C16.7601 14.4395 17.3871 14.2986 17.9614 14.0276C18.5357 13.7565 19.043 13.3619 19.4472 12.8721C19.8513 12.3822 20.1423 11.8092 20.2993 11.1938C20.4563 10.5785 20.4755 9.93609 20.3554 9.31249C20.2354 8.68889 19.9791 8.0995 19.6049 7.58642C19.2307 7.07334 18.7478 6.64925 18.1906 6.34442C17.6335 6.0396 17.016 5.86159 16.3821 5.82309C15.7482 5.78459 15.1137 5.88656 14.5238 6.12172C14.4551 6.14985 14.3815 6.1641 14.3072 6.16365C14.233 6.16321 14.1596 6.14807 14.0912 6.11911C14.0229 6.09016 13.9609 6.04795 13.9089 5.99494C13.857 5.94193 13.816 5.87915 13.7884 5.81023C13.7608 5.74131 13.7471 5.66761 13.7482 5.59338C13.7492 5.51915 13.7649 5.44585 13.7944 5.37772C13.8239 5.30959 13.8666 5.24797 13.92 5.19642C13.9734 5.14486 14.0365 5.10439 14.1056 5.07734C15.3852 4.56722 16.8106 4.56173 18.094 5.06197C19.3774 5.56221 20.4232 6.53089 21.02 7.77235C21.6168 9.01381 21.7202 10.4355 21.3093 11.7502C20.8984 13.065 20.0038 14.1748 18.8063 14.8555C20.7422 15.4727 22.4048 16.741 23.5116 18.4452C23.592 18.5704 23.6195 18.7224 23.5881 18.8679C23.5566 19.0135 23.4688 19.1406 23.3438 19.2214Z" fill="#303030"/>
</svg>
