<svg width="24" height="24" viewBox="0 0 24 24" fill="none" xmlns="http://www.w3.org/2000/svg">
<path d="M10.5563 14.8516C11.6008 14.2595 12.42 13.3384 12.8861 12.2318C13.3522 11.1253 13.4389 9.89563 13.1328 8.73464C12.8266 7.57365 12.1448 6.54664 11.1937 5.81382C10.2426 5.081 9.07569 4.68359 7.87501 4.68359C6.67434 4.68359 5.50742 5.081 4.55631 5.81382C3.6052 6.54664 2.92339 7.57365 2.61724 8.73464C2.31109 9.89563 2.39783 11.1253 2.86391 12.2318C3.32999 13.3384 4.14921 14.2595 5.19376 14.8516C3.2578 15.4688 1.59521 16.7371 0.488452 18.4412C0.406898 18.5662 0.378317 18.7184 0.408996 18.8644C0.439676 19.0104 0.527103 19.1383 0.652045 19.2198C0.776987 19.3014 0.929209 19.33 1.07522 19.2993C1.22124 19.2686 1.34908 19.1812 1.43064 19.0562C2.12871 17.9829 3.0838 17.101 4.2092 16.4904C5.3346 15.8799 6.59467 15.5601 7.87501 15.5601C9.15536 15.5601 10.4154 15.8799 11.5408 16.4904C12.6662 17.101 13.6213 17.9829 14.3194 19.0562C14.4063 19.1676 14.5318 19.2422 14.6711 19.2652C14.8104 19.2882 14.9533 19.258 15.0714 19.1805C15.1895 19.1031 15.2741 18.9841 15.3085 18.8471C15.3428 18.7101 15.3244 18.5653 15.2569 18.4412C14.1513 16.738 12.4905 15.4697 10.5563 14.8516ZM3.56251 10.1237C3.56251 9.27081 3.81544 8.43704 4.2893 7.72785C4.76316 7.01866 5.43668 6.46592 6.22469 6.13952C7.0127 5.81311 7.8798 5.72771 8.71634 5.89411C9.55288 6.06051 10.3213 6.47123 10.9244 7.07435C11.5275 7.67746 11.9382 8.44588 12.1046 9.28242C12.271 10.119 12.1856 10.9861 11.8592 11.7741C11.5328 12.5621 10.9801 13.2356 10.2709 13.7095C9.56172 14.1833 8.72795 14.4362 7.87501 14.4362C6.73172 14.4348 5.63569 13.9799 4.82726 13.1715C4.01883 12.3631 3.564 11.267 3.56251 10.1237ZM23.3438 19.2175C23.2189 19.299 23.0668 19.3275 22.9209 19.297C22.775 19.2664 22.6472 19.1791 22.5656 19.0544C21.8688 17.981 20.9144 17.099 19.7895 16.4889C18.6645 15.8787 17.4048 15.5598 16.125 15.5612C15.9758 15.5612 15.8328 15.502 15.7273 15.3965C15.6218 15.291 15.5625 15.1479 15.5625 14.9987C15.5625 14.8496 15.6218 14.7065 15.7273 14.601C15.8328 14.4955 15.9758 14.4362 16.125 14.4362C16.7601 14.4356 17.3871 14.2947 17.9614 14.0237C18.5357 13.7526 19.043 13.358 19.4472 12.8682C19.8513 12.3783 20.1423 11.8053 20.2993 11.1899C20.4563 10.5746 20.4755 9.93218 20.3554 9.30858C20.2354 8.68498 19.9791 8.09559 19.6049 7.58251C19.2307 7.06944 18.7478 6.64534 18.1906 6.34052C17.6335 6.0357 17.016 5.85768 16.3821 5.81918C15.7482 5.78068 15.1137 5.88265 14.5238 6.11781C14.4551 6.14594 14.3815 6.16019 14.3072 6.15975C14.233 6.1593 14.1596 6.14416 14.0912 6.11521C14.0229 6.08625 13.9609 6.04405 13.9089 5.99103C13.857 5.93802 13.816 5.87525 13.7884 5.80633C13.7608 5.7374 13.7471 5.6637 13.7482 5.58947C13.7492 5.51524 13.7649 5.44195 13.7944 5.37382C13.8239 5.30569 13.8666 5.24407 13.92 5.19251C13.9734 5.14096 14.0365 5.10049 14.1056 5.07343C15.3852 4.56332 16.8106 4.55782 18.094 5.05806C19.3774 5.5583 20.4232 6.52699 21.02 7.76845C21.6168 9.0099 21.7202 10.4316 21.3093 11.7463C20.8984 13.0611 20.0038 14.1709 18.8063 14.8516C20.7422 15.4688 22.4048 16.7371 23.5116 18.4412C23.592 18.5665 23.6195 18.7185 23.5881 18.864C23.5566 19.0095 23.4688 19.1366 23.3438 19.2175Z" fill="#303030"/>
</svg>
